<svg xmlns="http://www.w3.org/2000/svg" width="512" height="512" viewBox="0 0 512 512">
  <defs>
    <radialGradient id="bg" cx="40%" cy="35%" r="70%">
      <stop offset="0%" stop-color="#2a1a10"/>
      <stop offset="100%" stop-color="#0e0b08"/>
    </radialGradient>
    <radialGradient id="ball" cx="38%" cy="32%" r="65%">
      <stop offset="0%" stop-color="#d98f60"/>
      <stop offset="100%" stop-color="#a85f38"/>
    </radialGradient>
  </defs>

  <!-- Fundo -->
  <rect width="512" height="512" rx="100" fill="url(#bg)"/>

  <!-- Bola de tenis -->
  <circle cx="256" cy="196" r="148" fill="url(#ball)"/>

  <!-- Costuras da bola -->
  <path d="M 108 196 C 150 116, 230 116, 256 196 C 282 276, 362 276, 404 196"
        stroke="white" stroke-width="13" fill="none" stroke-linecap="round" opacity="0.85"/>
  <path d="M 108 196 C 150 276, 230 276, 256 196 C 282 116, 362 116, 404 196"
        stroke="white" stroke-width="13" fill="none" stroke-linecap="round" opacity="0.85"/>

  <!-- Brilho -->
  <circle cx="208" cy="140" r="40" fill="white" opacity="0.07"/>

  <!-- Letra C esquerda (path) -->
  <path d="M 204 370 A 68 68 0 1 0 204 460"
        fill="none" stroke="#f0e8e0" stroke-width="30" stroke-linecap="round"/>

  <!-- Letra C direita (path) -->
  <path d="M 332 370 A 68 68 0 1 0 332 460"
        fill="none" stroke="#f0e8e0" stroke-width="30" stroke-linecap="round"/>

  <!-- Linha decorativa sob as letras -->
  <rect x="120" y="484" width="272" height="4" rx="2" fill="#9e7a65" opacity="0.5"/>
</svg>
